<svg width="240" height="153" viewBox="0 0 240 153" fill="none" xmlns="http://www.w3.org/2000/svg">
<mask id="mask0_233_30" style="mask-type:luminance" maskUnits="userSpaceOnUse" x="0" y="0" width="240" height="153">
<path d="M240 0H0V152.6H240V0Z" fill="white"/>
</mask>
<g mask="url(#mask0_233_30)">
<path d="M239.95 96.05C240.02 98.2 234.04 110.91 222.96 114.06C217.11 115.72 208.05 115.84 192.49 115.81C184.14 115.8 163.09 115.64 147.51 115.81C127.46 116.03 121.51 131.89 120.03 138.47C118.54 131.89 112.56 116.03 92.5099 115.81C76.9299 115.64 55.8799 115.8 47.5299 115.81C31.9599 115.83 22.9099 115.72 17.0599 114.06C5.95991 110.91 -0.0200857 98.2 0.0499143 96.05C-0.780086 121.35 7.76991 132.32 31.9499 133.31H97.0899C107.79 133.16 116.98 142.84 120 152.6C123.03 142.84 132.18 133.17 142.88 133.31H208.02C232.2 132.32 240.75 121.35 239.93 96.05" fill="#E963A5"/>
<path d="M21.7498 9.33994C21.4098 4.82994 24.7898 0.89994 29.2998 0.55994H29.9398C34.2998 0.38994 37.9798 3.78994 38.1498 8.15994V8.17994C38.1698 8.46994 38.1698 8.75994 38.1498 9.05994C38.3098 13.5799 34.7698 17.3699 30.2498 17.5199H29.9498C25.5898 17.6799 21.9198 14.2699 21.7598 9.89994V9.32994M13.8498 92.9499C22.0398 92.9499 24.2998 91.5399 24.2998 88.1399V43.7999C24.2998 39.5599 22.3298 36.7399 14.1298 36.7399V32.1899L36.1598 31.6199V88.1099C36.1598 91.4999 38.1398 92.9199 46.6198 92.9199V97.4299H13.8398V92.9399L13.8498 92.9499Z" fill="black"/>
<path d="M61.86 9.34005C61.53 4.82005 64.93 0.890045 69.45 0.560045H70.06C74.42 0.390045 78.1 3.80005 78.27 8.16005V9.04005C78.43 13.55 74.91 17.34 70.39 17.51H70.06C65.7 17.67 62.03 14.27 61.86 9.90004V9.33004M53.97 92.95C62.17 92.95 64.42 91.54 64.42 88.14V43.8C64.42 39.56 62.45 36.74 53.97 36.74V32.19L76.3 31.62V88.11C76.3 91.5 78.27 92.92 86.75 92.92V97.43H53.97V92.95Z" fill="black"/>
<path d="M103.38 58.48L134.18 57.92C135.59 45.77 130.25 35.32 120.02 35.32C109.79 35.32 104.48 42.09 103.35 58.48M90.3198 65.27C90.3198 45.73 102.41 30.85 120.83 30.85C139.25 30.85 148.23 47.23 146.82 62.77H103.39V63.62C103.39 79.44 111.02 90.74 125.14 90.74C133.05 90.74 139.55 85.65 145.2 78.59L147.99 81.38C142.62 90.13 135.27 98.32 120.87 98.32C101.1 98.32 90.3598 83.92 90.3598 64.99" fill="black"/>
<path d="M203.38 85.6V43.51C200.42 38.23 194.74 35.07 188.7 35.32C178.53 35.32 169.77 45.77 169.77 64.98C169.77 84.19 177.12 91.81 189.83 91.81C194.98 91.56 199.84 89.34 203.39 85.6M156.49 65.83C156.49 46.06 168.92 30.8 188.12 30.8C193.48 30.6 198.78 31.97 203.37 34.75V12.15C203.37 7.91999 200.83 5.35999 192.35 5.08999V0.54999L215.52 -0.0100098V88.12C215.52 91.51 217.5 92.93 225.69 93.21V97.44L203.66 98.01V90.38C198.73 95.74 191.73 98.73 184.45 98.58C166.94 98.58 156.48 84.17 156.48 65.81" fill="black"/>
</g>
</svg>
