<svg width="685" height="1495" viewBox="0 0 685 1495" fill="none" xmlns="http://www.w3.org/2000/svg">
<path d="M577.94 672.88L613.773 465.824L610.945 458.826C605.591 445.426 590.08 437.411 576.17 441.051C568.655 442.975 559.511 450.299 556.469 456.803C554.724 460.557 534.719 571.705 481.607 875.226C414.046 1260.68 408.891 1289.15 404.729 1300.47C391.434 1336.71 374.622 1359.88 350.202 1376.29C337.783 1384.52 330.253 1388.07 315.965 1392.32C284.793 1401.72 236.72 1401.77 204.912 1392.5C135.217 1372.36 99.1492 1331.21 94.2124 1266.3C91.9218 1234.75 85.177 1276.08 185.522 704.688C244.145 369.915 278.644 176.568 281.168 166.859C291.258 128.833 314.913 105.249 354.387 94.0675C398.875 81.3325 442.067 89.7608 470.641 116.597C487.111 132.228 497.788 153.065 501.723 177.587L503.856 190.826L432.707 596.636C370.642 950.163 360.909 1003.82 357.466 1013.37C349.405 1036.05 339.613 1047.05 323.718 1051.96L313.848 1054.96L292.051 1051.12C272.509 1047.53 269.535 1046.74 263.301 1042.93C249.637 1034.43 242.375 1021.1 240.286 1000.69C239.49 992.16 241.488 980.056 286.776 723.218C331.901 467.3 334.039 454.408 332.687 449.025C329.557 436.83 320.519 428.196 308.701 426.112C297.015 424.051 284.974 429.375 278.588 439.486C274.897 445.063 180.447 976.875 180.194 992.129C179.724 1053.92 213.398 1095.6 274.889 1109.29C312.296 1117.51 341.715 1112.68 368.329 1093.81C388.432 1079.62 402.355 1060.55 414.138 1031.35C418.245 1021.11 421.965 1000.78 490.939 609.612C560.953 212.537 563.346 198.201 562.765 187.674C560.45 144.753 545.53 108.816 517.882 79.0297C506.619 66.8894 483.778 50.5413 469.241 43.9164C429.075 26.0028 379.318 23.3218 334.56 36.8215C308.972 44.4948 278.728 62.4491 262.434 79.6136C251.297 91.3244 239.699 107.963 232.633 122.693L226.641 135.176L131.32 673.468C63.2419 1058.02 35.6745 1215.9 34.8959 1226.46C32.1743 1261.86 36.7521 1299.63 47.0363 1327.3C68.331 1384.67 111.258 1423.78 178.141 1446.81C212.228 1458.51 262.109 1462.03 302.48 1455.74C386.891 1442.33 443.005 1389 467.593 1298.69C471.499 1284.22 506.344 1086.6 577.94 672.88Z" fill="#E963A5"/>
</svg>
